<?xml version="1.0" encoding="utf-8"?>
<svg id="master-artboard" viewBox="0 0 1096 780" version="1.1" xmlns="http://www.w3.org/2000/svg" x="0px" y="0px" style="enable-background:new 0 0 1096 780;" width="1096px" height="780px">

<g transform="matrix(1, 0, 0, 1, 2.842170943040401e-14, 7.105427357601002e-15)">
		<path d="M 0 0 H 1096 V 780 H 0 V 0 Z"/>
		<path d="M 0 4 L 1096 4" class="st0" style="fill: none; stroke: rgb(26, 26, 26); stroke-width: 2; stroke-miterlimit: 10;"/>
		<path d="M 0 11 L 1096 11" class="st0" style="fill: none; stroke: rgb(26, 26, 26); stroke-width: 2; stroke-miterlimit: 10;"/>
		<path d="M 0 18 L 1096 18" class="st0" style="fill: none; stroke: rgb(26, 26, 26); stroke-width: 2; stroke-miterlimit: 10;"/>
		<path d="M 0 25 L 1096 25" class="st0" style="fill: none; stroke: rgb(26, 26, 26); stroke-width: 2; stroke-miterlimit: 10;"/>
		<path d="M 0 32 L 1096 32" class="st0" style="fill: none; stroke: rgb(26, 26, 26); stroke-width: 2; stroke-miterlimit: 10;"/>
		<path d="M 0 39 L 1096 39" class="st0" style="fill: none; stroke: rgb(26, 26, 26); stroke-width: 2; stroke-miterlimit: 10;"/>
		<path d="M 0 46 L 1096 46" class="st0" style="fill: none; stroke: rgb(26, 26, 26); stroke-width: 2; stroke-miterlimit: 10;"/>
		<path d="M 0 53 L 1096 53" class="st0" style="fill: none; stroke: rgb(26, 26, 26); stroke-width: 2; stroke-miterlimit: 10;"/>
		<path d="M 0 60 L 1096 60" class="st0" style="fill: none; stroke: rgb(26, 26, 26); stroke-width: 2; stroke-miterlimit: 10;"/>
		<path d="M 0 67 L 1096 67" class="st0" style="fill: none; stroke: rgb(26, 26, 26); stroke-width: 2; stroke-miterlimit: 10;"/>
		<path d="M 0 74 L 1096 74" class="st0" style="fill: none; stroke: rgb(26, 26, 26); stroke-width: 2; stroke-miterlimit: 10;"/>
		<path d="M 0 81 L 1096 81" class="st0" style="fill: none; stroke: rgb(26, 26, 26); stroke-width: 2; stroke-miterlimit: 10;"/>
		<path d="M 0 88 L 1096 88" class="st0" style="fill: none; stroke: rgb(26, 26, 26); stroke-width: 2; stroke-miterlimit: 10;"/>
		<path d="M 0 95 L 1096 95" class="st0" style="fill: none; stroke: rgb(26, 26, 26); stroke-width: 2; stroke-miterlimit: 10;"/>
		<path d="M 0 102 L 1096 102" class="st0" style="fill: none; stroke: rgb(26, 26, 26); stroke-width: 2; stroke-miterlimit: 10;"/>
		<path d="M 0 109 L 1096 109" class="st0" style="fill: none; stroke: rgb(26, 26, 26); stroke-width: 2; stroke-miterlimit: 10;"/>
		<path d="M 0 116 L 1096 116" class="st0" style="fill: none; stroke: rgb(26, 26, 26); stroke-width: 2; stroke-miterlimit: 10;"/>
		<path d="M 0 123 L 1096 123" class="st0" style="fill: none; stroke: rgb(26, 26, 26); stroke-width: 2; stroke-miterlimit: 10;"/>
		<path d="M 0 130 L 1096 130" class="st0" style="fill: none; stroke: rgb(26, 26, 26); stroke-width: 2; stroke-miterlimit: 10;"/>
		<path d="M 0 137 L 1096 137" class="st0" style="fill: none; stroke: rgb(26, 26, 26); stroke-width: 2; stroke-miterlimit: 10;"/>
		<path d="M 0 144 L 1096 144" class="st0" style="fill: none; stroke: rgb(26, 26, 26); stroke-width: 2; stroke-miterlimit: 10;"/>
		<path d="M 0 151 L 1096 151" class="st0" style="fill: none; stroke: rgb(26, 26, 26); stroke-width: 2; stroke-miterlimit: 10;"/>
		<path d="M 0 158 L 1096 158" class="st0" style="fill: none; stroke: rgb(26, 26, 26); stroke-width: 2; stroke-miterlimit: 10;"/>
		<path d="M 0 165 L 1096 165" class="st0" style="fill: none; stroke: rgb(26, 26, 26); stroke-width: 2; stroke-miterlimit: 10;"/>
		<path d="M 0 172 L 1096 172" class="st0" style="fill: none; stroke: rgb(26, 26, 26); stroke-width: 2; stroke-miterlimit: 10;"/>
		<path d="M 0 179 L 1096 179" class="st0" style="fill: none; stroke: rgb(26, 26, 26); stroke-width: 2; stroke-miterlimit: 10;"/>
		<path d="M 0 186 L 1096 186" class="st0" style="fill: none; stroke: rgb(26, 26, 26); stroke-width: 2; stroke-miterlimit: 10;"/>
		<path d="M 0 193 L 1096 193" class="st0" style="fill: none; stroke: rgb(26, 26, 26); stroke-width: 2; stroke-miterlimit: 10;"/>
		<path d="M 0 200 L 1096 200" class="st0" style="fill: none; stroke: rgb(26, 26, 26); stroke-width: 2; stroke-miterlimit: 10;"/>
		<path d="M 0 207 L 1096 207" class="st0" style="fill: none; stroke: rgb(26, 26, 26); stroke-width: 2; stroke-miterlimit: 10;"/>
		<path d="M 0 214 L 1096 214" class="st0" style="fill: none; stroke: rgb(26, 26, 26); stroke-width: 2; stroke-miterlimit: 10;"/>
		<path d="M 0 221 L 1096 221" class="st0" style="fill: none; stroke: rgb(26, 26, 26); stroke-width: 2; stroke-miterlimit: 10;"/>
		<path d="M 0 228 L 1096 228" class="st0" style="fill: none; stroke: rgb(26, 26, 26); stroke-width: 2; stroke-miterlimit: 10;"/>
		<path d="M 0 235 L 1096 235" class="st0" style="fill: none; stroke: rgb(26, 26, 26); stroke-width: 2; stroke-miterlimit: 10;"/>
		<path d="M 0 242 L 1096 242" class="st0" style="fill: none; stroke: rgb(26, 26, 26); stroke-width: 2; stroke-miterlimit: 10;"/>
		<path d="M 0 249 L 1096 249" class="st0" style="fill: none; stroke: rgb(26, 26, 26); stroke-width: 2; stroke-miterlimit: 10;"/>
		<path d="M 0 256 L 1096 256" class="st0" style="fill: none; stroke: rgb(26, 26, 26); stroke-width: 2; stroke-miterlimit: 10;"/>
		<path d="M 0 263 L 1096 263" class="st0" style="fill: none; stroke: rgb(26, 26, 26); stroke-width: 2; stroke-miterlimit: 10;"/>
		<path d="M 0 270 L 1096 270" class="st0" style="fill: none; stroke: rgb(26, 26, 26); stroke-width: 2; stroke-miterlimit: 10;"/>
		<path d="M 0 277 L 1096 277" class="st0" style="fill: none; stroke: rgb(26, 26, 26); stroke-width: 2; stroke-miterlimit: 10;"/>
		<path d="M 0 284 L 1096 284" class="st0" style="fill: none; stroke: rgb(26, 26, 26); stroke-width: 2; stroke-miterlimit: 10;"/>
		<path d="M 0 291 L 1096 291" class="st0" style="fill: none; stroke: rgb(26, 26, 26); stroke-width: 2; stroke-miterlimit: 10;"/>
		<path d="M 0 298 L 1096 298" class="st0" style="fill: none; stroke: rgb(26, 26, 26); stroke-width: 2; stroke-miterlimit: 10;"/>
		<path d="M 0 305 L 1096 305" class="st0" style="fill: none; stroke: rgb(26, 26, 26); stroke-width: 2; stroke-miterlimit: 10;"/>
		<path d="M 0 312 L 1096 312" class="st0" style="fill: none; stroke: rgb(26, 26, 26); stroke-width: 2; stroke-miterlimit: 10;"/>
		<path d="M 0 319 L 1096 319" class="st0" style="fill: none; stroke: rgb(26, 26, 26); stroke-width: 2; stroke-miterlimit: 10;"/>
		<path d="M 0 326 L 1096 326" class="st0" style="fill: none; stroke: rgb(26, 26, 26); stroke-width: 2; stroke-miterlimit: 10;"/>
		<path d="M 0 333 L 1096 333" class="st0" style="fill: none; stroke: rgb(26, 26, 26); stroke-width: 2; stroke-miterlimit: 10;"/>
		<path d="M 0 340 L 1096 340" class="st0" style="fill: none; stroke: rgb(26, 26, 26); stroke-width: 2; stroke-miterlimit: 10;"/>
		<path d="M 0 347 L 1096 347" class="st0" style="fill: none; stroke: rgb(26, 26, 26); stroke-width: 2; stroke-miterlimit: 10;"/>
		<path d="M 0 354 L 1096 354" class="st0" style="fill: none; stroke: rgb(26, 26, 26); stroke-width: 2; stroke-miterlimit: 10;"/>
		<path d="M 0 361 L 1096 361" class="st0" style="fill: none; stroke: rgb(26, 26, 26); stroke-width: 2; stroke-miterlimit: 10;"/>
		<path d="M 0 368 L 1096 368" class="st0" style="fill: none; stroke: rgb(26, 26, 26); stroke-width: 2; stroke-miterlimit: 10;"/>
		<path d="M 0 375 L 1096 375" class="st0" style="fill: none; stroke: rgb(26, 26, 26); stroke-width: 2; stroke-miterlimit: 10;"/>
		<path d="M 0 382 L 1096 382" class="st0" style="fill: none; stroke: rgb(26, 26, 26); stroke-width: 2; stroke-miterlimit: 10;"/>
		<path d="M 0 389 L 1096 389" class="st0" style="fill: none; stroke: rgb(26, 26, 26); stroke-width: 2; stroke-miterlimit: 10;"/>
		<path d="M 0 396 L 1096 396" class="st0" style="fill: none; stroke: rgb(26, 26, 26); stroke-width: 2; stroke-miterlimit: 10;"/>
		<path d="M 0 403 L 1096 403" class="st0" style="fill: none; stroke: rgb(26, 26, 26); stroke-width: 2; stroke-miterlimit: 10;"/>
		<path d="M 0 410 L 1096 410" class="st0" style="fill: none; stroke: rgb(26, 26, 26); stroke-width: 2; stroke-miterlimit: 10;"/>
		<path d="M 0 417 L 1096 417" class="st0" style="fill: none; stroke: rgb(26, 26, 26); stroke-width: 2; stroke-miterlimit: 10;"/>
		<path d="M 0 424 L 1096 424" class="st0" style="fill: none; stroke: rgb(26, 26, 26); stroke-width: 2; stroke-miterlimit: 10;"/>
		<path d="M 0 431 L 1096 431" class="st0" style="fill: none; stroke: rgb(26, 26, 26); stroke-width: 2; stroke-miterlimit: 10;"/>
		<path d="M 0 438 L 1096 438" class="st0" style="fill: none; stroke: rgb(26, 26, 26); stroke-width: 2; stroke-miterlimit: 10;"/>
		<path d="M 0 445 L 1096 445" class="st0" style="fill: none; stroke: rgb(26, 26, 26); stroke-width: 2; stroke-miterlimit: 10;"/>
		<path d="M 0 452 L 1096 452" class="st0" style="fill: none; stroke: rgb(26, 26, 26); stroke-width: 2; stroke-miterlimit: 10;"/>
		<path d="M 0 459 L 1096 459" class="st0" style="fill: none; stroke: rgb(26, 26, 26); stroke-width: 2; stroke-miterlimit: 10;"/>
		<path d="M 0 466 L 1096 466" class="st0" style="fill: none; stroke: rgb(26, 26, 26); stroke-width: 2; stroke-miterlimit: 10;"/>
		<path d="M 0 473 L 1096 473" class="st0" style="fill: none; stroke: rgb(26, 26, 26); stroke-width: 2; stroke-miterlimit: 10;"/>
		<path d="M 0 480 L 1096 480" class="st0" style="fill: none; stroke: rgb(26, 26, 26); stroke-width: 2; stroke-miterlimit: 10;"/>
		<path d="M 0 487 L 1096 487" class="st0" style="fill: none; stroke: rgb(26, 26, 26); stroke-width: 2; stroke-miterlimit: 10;"/>
		<path d="M 0 494 L 1096 494" class="st0" style="fill: none; stroke: rgb(26, 26, 26); stroke-width: 2; stroke-miterlimit: 10;"/>
		<path d="M 0 501 L 1096 501" class="st0" style="fill: none; stroke: rgb(26, 26, 26); stroke-width: 2; stroke-miterlimit: 10;"/>
		<path d="M 0 508 L 1096 508" class="st0" style="fill: none; stroke: rgb(26, 26, 26); stroke-width: 2; stroke-miterlimit: 10;"/>
		<path d="M 0 515 L 1096 515" class="st0" style="fill: none; stroke: rgb(26, 26, 26); stroke-width: 2; stroke-miterlimit: 10;"/>
		<path d="M 0 522 L 1096 522" class="st0" style="fill: none; stroke: rgb(26, 26, 26); stroke-width: 2; stroke-miterlimit: 10;"/>
		<path d="M 0 529 L 1096 529" class="st0" style="fill: none; stroke: rgb(26, 26, 26); stroke-width: 2; stroke-miterlimit: 10;"/>
		<path d="M 0 536 L 1096 536" class="st0" style="fill: none; stroke: rgb(26, 26, 26); stroke-width: 2; stroke-miterlimit: 10;"/>
		<path d="M 0 543 L 1096 543" class="st0" style="fill: none; stroke: rgb(26, 26, 26); stroke-width: 2; stroke-miterlimit: 10;"/>
		<path d="M 0 550 L 1096 550" class="st0" style="fill: none; stroke: rgb(26, 26, 26); stroke-width: 2; stroke-miterlimit: 10;"/>
		<path d="M 0 557 L 1096 557" class="st0" style="fill: none; stroke: rgb(26, 26, 26); stroke-width: 2; stroke-miterlimit: 10;"/>
		<path d="M 0 564 L 1096 564" class="st0" style="fill: none; stroke: rgb(26, 26, 26); stroke-width: 2; stroke-miterlimit: 10;"/>
		<path d="M 0 571 L 1096 571" class="st0" style="fill: none; stroke: rgb(26, 26, 26); stroke-width: 2; stroke-miterlimit: 10;"/>
		<path d="M 0 578 L 1096 578" class="st0" style="fill: none; stroke: rgb(26, 26, 26); stroke-width: 2; stroke-miterlimit: 10;"/>
		<path d="M 0 585 L 1096 585" class="st0" style="fill: none; stroke: rgb(26, 26, 26); stroke-width: 2; stroke-miterlimit: 10;"/>
		<path d="M 0 592 L 1096 592" class="st0" style="fill: none; stroke: rgb(26, 26, 26); stroke-width: 2; stroke-miterlimit: 10;"/>
		<path d="M 0 599 L 1096 599" class="st0" style="fill: none; stroke: rgb(26, 26, 26); stroke-width: 2; stroke-miterlimit: 10;"/>
		<path d="M 0 606 L 1096 606" class="st0" style="fill: none; stroke: rgb(26, 26, 26); stroke-width: 2; stroke-miterlimit: 10;"/>
		<path d="M 0 613 L 1096 613" class="st0" style="fill: none; stroke: rgb(26, 26, 26); stroke-width: 2; stroke-miterlimit: 10;"/>
		<path d="M 0 620 L 1096 620" class="st0" style="fill: none; stroke: rgb(26, 26, 26); stroke-width: 2; stroke-miterlimit: 10;"/>
		<path d="M 0 627 L 1096 627" class="st0" style="fill: none; stroke: rgb(26, 26, 26); stroke-width: 2; stroke-miterlimit: 10;"/>
		<path d="M 0 634 L 1096 634" class="st0" style="fill: none; stroke: rgb(26, 26, 26); stroke-width: 2; stroke-miterlimit: 10;"/>
		<path d="M 0 641 L 1096 641" class="st0" style="fill: none; stroke: rgb(26, 26, 26); stroke-width: 2; stroke-miterlimit: 10;"/>
		<path d="M 0 648 L 1096 648" class="st0" style="fill: none; stroke: rgb(26, 26, 26); stroke-width: 2; stroke-miterlimit: 10;"/>
		<path d="M 0 655 L 1096 655" class="st0" style="fill: none; stroke: rgb(26, 26, 26); stroke-width: 2; stroke-miterlimit: 10;"/>
		<path d="M 0 662 L 1096 662" class="st0" style="fill: none; stroke: rgb(26, 26, 26); stroke-width: 2; stroke-miterlimit: 10;"/>
		<path d="M 0 669 L 1096 669" class="st0" style="fill: none; stroke: rgb(26, 26, 26); stroke-width: 2; stroke-miterlimit: 10;"/>
		<path d="M 0 676 L 1096 676" class="st0" style="fill: none; stroke: rgb(26, 26, 26); stroke-width: 2; stroke-miterlimit: 10;"/>
		<path d="M 0 683 L 1096 683" class="st0" style="fill: none; stroke: rgb(26, 26, 26); stroke-width: 2; stroke-miterlimit: 10;"/>
		<path d="M 0 690 L 1096 690" class="st0" style="fill: none; stroke: rgb(26, 26, 26); stroke-width: 2; stroke-miterlimit: 10;"/>
		<path d="M 0 697 L 1096 697" class="st0" style="fill: none; stroke: rgb(26, 26, 26); stroke-width: 2; stroke-miterlimit: 10;"/>
		<path d="M 0 704 L 1096 704" class="st0" style="fill: none; stroke: rgb(26, 26, 26); stroke-width: 2; stroke-miterlimit: 10;"/>
		<path d="M 0 711 L 1096 711" class="st0" style="fill: none; stroke: rgb(26, 26, 26); stroke-width: 2; stroke-miterlimit: 10;"/>
		<path d="M 0 718 L 1096 718" class="st0" style="fill: none; stroke: rgb(26, 26, 26); stroke-width: 2; stroke-miterlimit: 10;"/>
		<path d="M 0 725 L 1096 725" class="st0" style="fill: none; stroke: rgb(26, 26, 26); stroke-width: 2; stroke-miterlimit: 10;"/>
		<path d="M 0 732 L 1096 732" class="st0" style="fill: none; stroke: rgb(26, 26, 26); stroke-width: 2; stroke-miterlimit: 10;"/>
		<path d="M 0 739 L 1096 739" class="st0" style="fill: none; stroke: rgb(26, 26, 26); stroke-width: 2; stroke-miterlimit: 10;"/>
		<path d="M 0 746 L 1096 746" class="st0" style="fill: none; stroke: rgb(26, 26, 26); stroke-width: 2; stroke-miterlimit: 10;"/>
		<path d="M 0 753 L 1096 753" class="st0" style="fill: none; stroke: rgb(26, 26, 26); stroke-width: 2; stroke-miterlimit: 10;"/>
		<path d="M 0 760 L 1096 760" class="st0" style="fill: none; stroke: rgb(26, 26, 26); stroke-width: 2; stroke-miterlimit: 10;"/>
		<path d="M 0 767 L 1096 767" class="st0" style="fill: none; stroke: rgb(26, 26, 26); stroke-width: 2; stroke-miterlimit: 10;"/>
		<path d="M 0 774 L 1096 774" class="st0" style="fill: none; stroke: rgb(26, 26, 26); stroke-width: 2; stroke-miterlimit: 10;"/>
		<g>
			<path d="M 257 39.5 L 54.5 39.5 L 54.5 159" class="st1" style="fill: none; stroke: rgb(255, 255, 255); stroke-width: 5; stroke-linecap: round; stroke-miterlimit: 10;"/>
			<path d="M 1040.5 159 L 1040.5 39.5 L 838 39.5" class="st1" style="fill: none; stroke: rgb(255, 255, 255); stroke-width: 5; stroke-linecap: round; stroke-miterlimit: 10;"/>
			<path d="M 54.5 621 L 54.5 741.5 L 257 741.5" class="st1" style="fill: none; stroke: rgb(255, 255, 255); stroke-width: 5; stroke-linecap: round; stroke-miterlimit: 10;"/>
			<path d="M 838 741.5 L 1040.5 741.5 L 1040.5 621" class="st1" style="fill: none; stroke: rgb(255, 255, 255); stroke-width: 5; stroke-linecap: round; stroke-miterlimit: 10;"/>
		</g>
		<path d="M 895 99.099998 A 29 29 0 0 1 866 128.099998 A 29 29 0 0 1 837 99.099998 A 29 29 0 0 1 866 70.099998 A 29 29 0 0 1 895 99.099998 Z" class="st2" style="fill: rgb(255, 0, 0);"/>
		<g>
			<path class="st3" d="M915.5,81.6h15.7c2.6,0,4.7,0.4,6.4,1.1c3.2,1.5,4.8,4.2,4.8,8.1c0,2.1-0.4,3.8-1.3,5.1s-2,2.4-3.6,3.2&#10;&#9;&#9;&#9;&#9;c1.3,0.5,2.4,1.3,3,2.2s1.1,2.3,1.1,4.3l0.2,4.6c0,1.3,0.2,2.3,0.3,2.9c0.3,1.1,0.8,1.8,1.5,2.1v0.8h-5.7&#10;&#9;&#9;&#9;&#9;c-0.2-0.3-0.3-0.7-0.4-1.1s-0.2-1.4-0.2-2.7l-0.3-5.7c-0.1-2.2-0.9-3.8-2.4-4.5c-0.9-0.4-2.2-0.6-4.1-0.6h-10.3V116h-4.7V81.6z&#10;&#9;&#9;&#9;&#9; M930.7,97.3c2.1,0,3.8-0.4,5-1.3s1.9-2.5,1.9-4.7c0-2.5-0.9-4.1-2.6-5c-0.9-0.5-2.2-0.7-3.7-0.7h-11.1v11.8H930.7z" style="fill: rgb(255, 255, 255);"/>
			<path class="st3" d="M950.1,81.6h25v4.2h-20.4v10.5h18.9v4h-18.9v11.7h20.8v4.1h-25.3V81.6z" style="fill: rgb(255, 255, 255);"/>
			<path class="st3" d="M1006,84.1c2.4,2.3,3.7,4.9,4,7.8h-4.5c-0.5-2.2-1.5-4-3-5.3c-1.5-1.3-3.6-1.9-6.4-1.9c-3.3,0-6,1.2-8.1,3.6&#10;&#9;&#9;&#9;&#9;c-2,2.4-3.1,6-3.1,11c0,4,0.9,7.3,2.8,9.8s4.6,3.8,8.3,3.8c3.4,0,5.9-1.3,7.7-4c0.9-1.4,1.6-3.2,2.1-5.5h4.5&#10;&#9;&#9;&#9;&#9;c-0.4,3.6-1.7,6.7-4,9.1c-2.7,3-6.3,4.4-10.9,4.4c-4,0-7.3-1.2-10-3.6c-3.5-3.2-5.3-8.2-5.3-14.8c0-5.1,1.3-9.2,4-12.5&#10;&#9;&#9;&#9;&#9;c2.9-3.5,6.8-5.3,11.9-5.3C1000.3,80.6,1003.6,81.8,1006,84.1z" style="fill: rgb(255, 255, 255);"/>
		</g>
		<g>
			<path class="st3" d="M852.9,677c1.1,2,1.6,4.7,1.6,8.1c0,3.2-0.5,5.9-1.4,8c-1.4,3-3.7,4.6-6.9,4.6c-2.9,0-5-1.2-6.4-3.7&#10;&#9;&#9;&#9;&#9;c-1.2-2.1-1.7-4.9-1.7-8.4c0-2.7,0.3-5,1-7c1.3-3.6,3.7-5.4,7.1-5.4C849.3,673.2,851.5,674.4,852.9,677z M849.9,692.9&#10;&#9;&#9;&#9;&#9;c0.9-1.4,1.4-3.9,1.4-7.7c0-2.7-0.3-4.9-1-6.7c-0.7-1.7-2-2.6-3.9-2.6c-1.8,0-3.1,0.8-3.9,2.5c-0.8,1.7-1.2,4.1-1.2,7.3&#10;&#9;&#9;&#9;&#9;c0,2.4,0.3,4.4,0.8,5.9c0.8,2.3,2.2,3.4,4.1,3.4C847.7,694.9,849,694.2,849.9,692.9z" style="fill: rgb(255, 255, 255);"/>
			<path class="st3" d="M871.9,677c1.1,2,1.6,4.7,1.6,8.1c0,3.2-0.5,5.9-1.4,8c-1.4,3-3.7,4.6-6.9,4.6c-2.9,0-5-1.2-6.4-3.7&#10;&#9;&#9;&#9;&#9;c-1.2-2.1-1.7-4.9-1.7-8.4c0-2.7,0.3-5,1-7c1.3-3.6,3.7-5.4,7.1-5.4C868.3,673.2,870.5,674.4,871.9,677z M868.9,692.9&#10;&#9;&#9;&#9;&#9;c0.9-1.4,1.4-3.9,1.4-7.7c0-2.7-0.3-4.9-1-6.7c-0.7-1.7-2-2.6-3.9-2.6c-1.8,0-3.1,0.8-3.9,2.5c-0.8,1.7-1.2,4.1-1.2,7.3&#10;&#9;&#9;&#9;&#9;c0,2.4,0.3,4.4,0.8,5.9c0.8,2.3,2.2,3.4,4.1,3.4C866.7,694.9,867.9,694.2,868.9,692.9z" style="fill: rgb(255, 255, 255);"/>
			<path class="st3" d="M878.7,679.4h3.5v3.6h-3.5V679.4z M878.7,693.4h3.5v3.6h-3.5V693.4z" style="fill: rgb(255, 255, 255);"/>
			<path class="st3" d="M887.6,680.1v-2.3c2.2-0.2,3.7-0.6,4.5-1.1c0.9-0.5,1.5-1.7,1.9-3.5h2.4V697h-3.2v-16.9H887.6z" style="fill: rgb(255, 255, 255);"/>
			<path class="st3" d="M907.6,690.9c0.2,1.7,1,2.9,2.4,3.5c0.7,0.3,1.5,0.5,2.5,0.5c1.8,0,3.1-0.6,3.9-1.7s1.3-2.4,1.3-3.8&#10;&#9;&#9;&#9;&#9;c0-1.7-0.5-3-1.5-3.9c-1-0.9-2.2-1.4-3.7-1.4c-1,0-1.9,0.2-2.7,0.6s-1.4,1-1.9,1.7l-2.6-0.1l1.8-12.8h12.4v2.9h-10.1l-1,6.6&#10;&#9;&#9;&#9;&#9;c0.6-0.4,1.1-0.7,1.6-0.9c0.9-0.4,1.9-0.5,3.1-0.5c2.2,0,4,0.7,5.6,2.1s2.3,3.2,2.3,5.4c0,2.3-0.7,4.2-2.1,6s-3.6,2.6-6.7,2.6&#10;&#9;&#9;&#9;&#9;c-1.9,0-3.7-0.5-5.2-1.6s-2.3-2.8-2.5-5H907.6z" style="fill: rgb(255, 255, 255);"/>
			<path class="st3" d="M926.1,679.4h3.5v3.6h-3.5V679.4z M926.1,693.4h3.5v3.6h-3.5V693.4z" style="fill: rgb(255, 255, 255);"/>
			<path class="st3" d="M934.5,695.3c-1.3-1.5-1.9-3.4-1.9-5.7h3.1c0.1,1.5,0.4,2.7,0.9,3.4c0.8,1.3,2.2,1.9,4.2,1.9&#10;&#9;&#9;&#9;&#9;c1.6,0,2.8-0.4,3.8-1.3c1-0.8,1.4-1.9,1.4-3.3c0-1.6-0.5-2.8-1.5-3.4c-1-0.7-2.4-1-4.2-1c-0.2,0-0.4,0-0.6,0c-0.2,0-0.4,0-0.6,0&#10;&#9;&#9;&#9;&#9;v-2.6c0.3,0,0.6,0.1,0.8,0.1s0.4,0,0.7,0c1.1,0,2-0.2,2.8-0.5c1.3-0.6,1.9-1.7,1.9-3.3c0-1.2-0.4-2.1-1.3-2.7&#10;&#9;&#9;&#9;&#9;c-0.8-0.6-1.8-1-2.9-1c-2,0-3.4,0.7-4.1,2c-0.4,0.7-0.7,1.8-0.7,3.1h-3c0-1.8,0.4-3.3,1.1-4.5c1.2-2.2,3.4-3.3,6.4-3.3&#10;&#9;&#9;&#9;&#9;c2.4,0,4.3,0.5,5.6,1.6c1.3,1.1,2,2.6,2,4.7c0,1.5-0.4,2.7-1.2,3.6c-0.5,0.6-1.1,1-1.9,1.3c1.3,0.3,2.2,1,2.9,2&#10;&#9;&#9;&#9;&#9;c0.7,1,1.1,2.2,1.1,3.6c0,2.3-0.7,4.1-2.2,5.6s-3.6,2.1-6.4,2.1C937.8,697.6,935.8,696.9,934.5,695.3z" style="fill: rgb(255, 255, 255);"/>
			<path class="st3" d="M962,697v-5.8h-10.5v-2.9l10.9-15.1h2.5v15.5h3.5v2.6H965v5.8H962z M962,688.6v-10.8l-7.6,10.8H962z" style="fill: rgb(255, 255, 255);"/>
			<path class="st3" d="M973.5,679.4h3.5v3.6h-3.5V679.4z M973.5,693.4h3.5v3.6h-3.5V693.4z" style="fill: rgb(255, 255, 255);"/>
			<path class="st3" d="M982.4,683.1c-0.9-0.9-1.3-2-1.3-3.5c0-1.8,0.6-3.3,1.9-4.6c1.3-1.3,3.1-1.9,5.5-1.9c2.3,0,4.1,0.6,5.4,1.8&#10;&#9;&#9;&#9;&#9;s1.9,2.6,1.9,4.2c0,1.5-0.4,2.7-1.1,3.6c-0.4,0.5-1.1,1-2,1.5c1,0.5,1.8,1,2.3,1.6c1.1,1.1,1.6,2.6,1.6,4.3&#10;&#9;&#9;&#9;&#9;c0,2.1-0.7,3.9-2.1,5.3c-1.4,1.5-3.4,2.2-6,2.2c-2.3,0-4.3-0.6-5.9-1.9c-1.6-1.3-2.4-3.1-2.4-5.5c0-1.4,0.3-2.6,1-3.7&#10;&#9;&#9;&#9;&#9;c0.7-1,1.7-1.8,3.1-2.4C983.5,683.9,982.9,683.5,982.4,683.1z M992.1,693.8c0.9-0.7,1.4-1.9,1.4-3.4c0-1.5-0.5-2.7-1.4-3.5&#10;&#9;&#9;&#9;&#9;s-2.2-1.2-3.6-1.2c-1.4,0-2.6,0.4-3.5,1.2s-1.4,1.9-1.4,3.4c0,1.2,0.4,2.3,1.2,3.2c0.8,0.9,2.1,1.4,3.8,1.4&#10;&#9;&#9;&#9;&#9;C990,695,991.1,694.6,992.1,693.8z M991.5,682c0.7-0.7,1.1-1.6,1.1-2.6c0-0.9-0.4-1.7-1.1-2.5s-1.8-1.1-3.2-1.1&#10;&#9;&#9;&#9;&#9;c-1.4,0-2.5,0.4-3.1,1.1c-0.6,0.7-1,1.6-1,2.6c0,1.1,0.4,2,1.2,2.6c0.8,0.6,1.8,1,2.9,1C989.7,683.2,990.8,682.8,991.5,682z" style="fill: rgb(255, 255, 255);"/>
			<path class="st3" d="M1015.9,673.6v2.6c-0.8,0.7-1.8,2-3.1,3.9c-1.3,1.8-2.4,3.8-3.4,6c-1,2.1-1.7,4-2.2,5.7&#10;&#9;&#9;&#9;&#9;c-0.3,1.1-0.7,2.9-1.2,5.3h-3.3c0.8-4.5,2.4-9.1,5-13.6c1.5-2.6,3.1-4.9,4.8-6.8h-13.2v-3H1015.9z" style="fill: rgb(255, 255, 255);"/>
		</g>
		<g>
			<path class="st3" d="M213,709.2H95.7v-55.9H213V709.2z M100.4,704.5h107.9V658H100.4V704.5z" style="fill: rgb(255, 255, 255);"/>
			<path d="M 210.699997 665 H 226.499997 V 697.599998 H 210.699997 V 665 Z" class="st3" style="fill: rgb(255, 255, 255);"/>
			<path d="M 103.300003 655.700012 H 121.900003 V 706.900013 H 103.300003 V 655.700012 Z" class="st3" style="fill: rgb(255, 255, 255);"/>
			<path d="M 126 655.700012 H 144.6 V 706.900013 H 126 V 655.700012 Z" class="st3" style="fill: rgb(255, 255, 255);"/>
			<path d="M 148.600006 655.700012 H 167.200006 V 706.900013 H 148.600006 V 655.700012 Z" class="st3" style="fill: rgb(255, 255, 255);"/>
			<path d="M 171.300003 655.700012 H 189.900003 V 706.900013 H 171.300003 V 655.700012 Z" class="st3" style="fill: rgb(255, 255, 255);"/>
		</g>
		<g>
			<path d="M 447 335 L 447 310 L 484 310 L 484 303 L 440 303 L 440 335 Z" class="st3" style="fill: rgb(255, 255, 255);"/>
			<path d="M 612 310 L 649 310 L 649 335 L 656 335 L 656 303 L 612 303 Z" class="st3" style="fill: rgb(255, 255, 255);"/>
			<path d="M 484 471 L 447 471 L 447 445 L 440 445 L 440 478 L 484 478 Z" class="st3" style="fill: rgb(255, 255, 255);"/>
			<path d="M 649 445 L 649 471 L 612 471 L 612 478 L 656 478 L 656 445 Z" class="st3" style="fill: rgb(255, 255, 255);"/>
		</g>
	</g>

</svg>