<svg id="Capa_1" enable-background="new 0 0 512 512" height="512" viewBox="-520 -520 1512 1512" width="512" xmlns="http://www.w3.org/2000/svg"><g><g><g><g><g><path d="m497 481h-272c-8.291 0-15-6.709-15-15s6.709-15 15-15c51.504 0 99.99-19.775 136.494-55.693 2.813-2.754 6.592-4.307 10.518-4.307h124.988c8.291 0 15 6.709 15 15v60c0 8.291-6.709 15-15 15z" fill="#404a80"/></g></g></g></g><g><g><g><g><path d="m225 481c-124.072 0-225-100.928-225-225s100.928-225 225-225 225 100.928 225 225c0 61.113-23.965 118.198-67.5 160.723-42.129 41.44-98.057 64.277-157.5 64.277z" fill="#edf5ff"/></g></g></g></g><path d="m382.5 416.723c43.535-42.525 67.5-99.61 67.5-160.723 0-124.072-100.928-225-225-225v450c59.443 0 115.371-22.837 157.5-64.277z" fill="#d5e8fe"/><g id="Film_Reel_2_"><g><g><g><g><path d="m276.65 408.446c-3.662-1.523-6.592-4.438-8.115-8.115l-34.424-83.145c-3.164-7.661.469-16.436 8.115-19.6 10.928-4.526 19.834-13.418 24.375-24.375 3.193-7.676 12.012-11.235 19.6-8.101l83.115 34.438c3.691 1.523 6.592 4.453 8.115 8.13s1.523 7.808 0 11.484c-16.641 40.049-49.189 72.598-89.268 89.268-3.552 1.496-7.705 1.588-11.513.016z" fill="#404a80"/></g></g></g></g><g><g><g><g><path d="m161.836 408.432c-40.078-16.67-72.627-49.219-89.268-89.268-1.523-3.677-1.523-7.808 0-11.484s4.424-6.606 8.115-8.13l83.115-34.438c7.617-3.164 16.406.439 19.6 8.101 4.541 10.957 13.447 19.849 24.375 24.375 7.646 3.164 11.279 11.938 8.115 19.6l-34.424 83.145c-1.523 3.677-4.453 6.592-8.115 8.115-3.751 1.546-7.906 1.501-11.513-.016z" fill="#5c6699"/></g></g></g></g><g><g><g><g><path d="m163.799 246.889-83.115-34.439c-3.691-1.523-6.592-4.453-8.115-8.13s-1.523-7.808 0-11.484c16.641-40.049 49.189-72.598 89.268-89.268 3.691-1.553 7.822-1.538 11.514-.015 3.662 1.523 6.592 4.438 8.115 8.115l34.424 83.145c3.164 7.661-.469 16.436-8.115 19.6-10.928 4.526-19.834 13.418-24.375 24.375-3.196 7.674-11.994 11.25-19.601 8.101z" fill="#5c6699"/></g></g></g></g><g><g><g><circle cx="225" cy="256" fill="#d5e8fe" r="15"/></g></g></g><g><g><g><g><path d="m266.602 238.788c-4.541-10.957-13.447-19.849-24.375-24.375-7.646-3.164-11.279-11.938-8.115-19.6l34.424-83.145c1.523-3.677 4.453-6.592 8.115-8.115 3.721-1.523 7.852-1.509 11.514.015 40.078 16.67 72.627 49.219 89.268 89.268 1.523 3.677 1.523 7.808 0 11.484s-4.424 6.606-8.115 8.13l-83.115 34.438c-7.578 3.138-16.389-.381-19.601-8.1z" fill="#404a80"/></g></g></g></g></g><path d="m240 256c0-8.286-6.716-15-15-15v30c8.284 0 15-6.716 15-15z" fill="#b5dbff"/></g></svg>