<?xml version="1.0"?>
<svg xmlns="http://www.w3.org/2000/svg" id="Outline" viewBox="0 0 512 512" ><path d="M195.578,240.845l-48-24A8,8,0,0,0,136,224v48a8,8,0,0,0,11.578,7.155l48-24a8,8,0,0,0,0-14.31ZM152,259.056V236.944L174.111,248Z"/><path d="M488,312H304V64a8,8,0,0,0-8-8H24a8,8,0,0,0-8,8V448a8,8,0,0,0,8,8H312a8,8,0,0,0,6.86-3.884L336,423.549l17.14,28.567A8,8,0,0,0,360,456H488a8,8,0,0,0,8-8V320A8,8,0,0,0,488,312Zm-216,0V296h16v16ZM48,120H32V104H48Zm0,16v16H32V136Zm0,32v16H32V168Zm0,32v16H32V200Zm0,32v16H32V232Zm0,32v16H32V264Zm0,32v16H32V296Zm0,32v16H32V328Zm0,32v16H32V360Zm0,32v16H32V392Zm16-64H176V440H64ZM64,72H256v96H64ZM288,280H272V264h16Zm0-32H272V232h16Zm0-32H272V200h16Zm0-32H272V168h16Zm0-32H272V136h16Zm0-32H272V104h16Zm0-32H272V72h16ZM48,72V88H32V72ZM32,424H48v16H32ZM64,312V184H256V312ZM480,440H364.529L342.86,403.884a8,8,0,0,0-13.72,0L307.471,440H192V328H480Z"/><path d="M216,424h80a8,8,0,0,0,6.656-3.562l16-24A8,8,0,0,0,320,392V352a8,8,0,0,0-8-8H216a8,8,0,0,0-8,8v64A8,8,0,0,0,216,424Zm8-64h80v29.578L291.719,408H224Z"/><path d="M369.344,420.438A8,8,0,0,0,376,424h80a8,8,0,0,0,8-8V352a8,8,0,0,0-8-8H360a8,8,0,0,0-8,8v40a8,8,0,0,0,1.344,4.438ZM368,360h80v48H380.281L368,389.578Z"/></svg>
